<svg xmlns="http://www.w3.org/2000/svg" width="800" height="600">
  <defs>
    <linearGradient id="deskGrad" x1="0" x2="0" y1="0" y2="1">
      <stop offset="0" style="stop-color:#e8c8a0" />
      <stop offset="1" style="stop-color:#c49462" />
    </linearGradient>
  </defs>
  
  <!-- Dark background -->
  <rect x="0" y="0" width="800" height="600" fill="#1a1a1a"/>
  
  <!-- Desk -->
  <rect x="40" y="350" width="720" height="250" fill="url(#deskGrad)"/>
  
  <!-- Cat silhouette (top half) -->
  <path d="M 51,32 L141,40 L194,52 L237,75 L262,114 L275,136 L267,162 L243,177 L212,177 L189,165 L170,147 L152,132 L146,114 L154,92 L170,72 L51,32" fill="#ffffff"/>
  
  <!-- Cat body/legs -->
  <path d="M 146,114 L146,200 L160,200 L160,195 L170,195 L170,200 L220,200 L220,250 L265,250 L265,200 L275,200 L275,162" fill="#ffffff"/>
  
  <!-- Laptop keyboard area -->
  <rect x="100" y="180" width="600" height="120" fill="#2d2d2d"/>
  
  <!-- Laptop screen -->
  <rect x="80" y="120" width="640" height="80" fill="#3a3a3a"/>
</svg>